<?xml version="1.0" encoding="iso-8859-1"?>
<!-- Uploaded to: SVG Repo, www.svgrepo.com, Generator: SVG Repo Mixer Tools -->
<svg fill="#000000" height="800px" width="800px" version="1.1" id="Layer_1" xmlns="http://www.w3.org/2000/svg" xmlns:xlink="http://www.w3.org/1999/xlink" 
	 viewBox="0 0 330 330" xml:space="preserve">
<g>
	<g>
		<path d="M315,42.5H15c-8.284,0-15,6.716-15,15v90c0,8.284,6.716,15,15,15h10.805c7.509,70.169,67.066,125,139.195,125
			s131.685-54.831,139.195-125H315c8.284,0,15-6.716,15-15v-90C330,49.216,323.284,42.5,315,42.5z M165,257.5
			c-8.271,0-15-6.729-15-15s6.729-15,15-15s15,6.729,15,15S173.271,257.5,165,257.5z M209.649,248.021
			c0.223-1.811,0.351-3.651,0.351-5.521c0-24.813-20.186-45-45-45c-24.813,0-45,20.187-45,45c0,1.87,0.128,3.71,0.351,5.521
			c-34.096-15.204-59.083-47.259-64.323-85.521h217.945C268.732,200.763,243.745,232.817,209.649,248.021z M300,132.5H30v-60h270
			V132.5z"/>
	</g>
</g>
</svg>