<svg xmlns="http://www.w3.org/2000/svg" viewBox="0 0 100 100">
  <path fill="#fff" d="M0 0h100v100H0Z"/>
  <path fill="#0101b3" d="M42.5 22q-13.8.4-22.6 9.3l6.1-2.6q3.7-1.5 7.7-2.2a31 31 0 0 1 11-4.4ZM88 25.3q-7.5 0-19.6 3.7a172 172 0 0 0-25.5 10.4 155 155 0 0 0-14.4 8.2 130 130 0 0 0-15.7 11.6A37 37 0 0 0 3 71.5a50 50 0 0 1 11.3-11.3 22 22 0 0 0 3.4 5.8q2.3-2.4 7-6.4a21 21 0 0 1-2.2-5.1q8.1-5.3 16.9-9.6a166 166 0 0 1 24.2-10A67 67 0 0 1 82 31.5q6 .1 7.7 2.8 1.5 2.8-1.9 7.5A52 52 0 0 1 77.2 52a78 78 0 0 0 16-13.7q5.3-6.3 3.3-10-1.9-3-8.6-3m-47.9 2A48 48 0 0 0 15.6 37a23 23 0 0 0-2.4 5.7q5.2-3.5 11-5.7a19 19 0 0 1 2.6-4.3l6.9-3q3-1.3 6.3-2.4m4.5 6q-5.7.2-12.4 2.6a96 96 0 0 0-12.3 5.3 35 35 0 0 0-7.2 4.6q-.9 5.1.2 10.1a50 50 0 0 1 8.8-6.5l-.2-1.6.5-4.3 7-4a62 62 0 0 1 7.9-3.5q4.2-1.6 7.7-2.7m23.4 11.3a69 69 0 0 0-25 5.9 59 59 0 0 0-10.4 6A94 94 0 0 0 19.4 68a30 30 0 0 0 5.6 4.7 56 56 0 0 1 5.7-5.8l-2-1.8A74 74 0 0 1 52 49.7a78 78 0 0 1 8.2-3ZM65.7 54a56 56 0 0 0-31.3 13.5 55 55 0 0 0-6.9 6.9 32 32 0 0 0 11 3.4q.9-1.3 4.2-4.6a27 27 0 0 1-6.2-2.2 57 57 0 0 1 14.4-10.6Q58 56.4 65.7 54m.2 10.4q-6.9.5-13 3.7a35 35 0 0 0-12 10h1.6q10.4-.2 18.3-5.7a32 32 0 0 1-12 1.7 41 41 0 0 1 9.9-6.7 44 44 0 0 1 7.2-2.9"/>
</svg>
