<svg xmlns="http://www.w3.org/2000/svg" viewBox="0 0 645 201">
  <g id="theme" fill="var(--logo-theme-color)">
    <path d="M141.4.5Q92.1 1.9 61.1 33.9q8.4-4.4 21.8-9.3 13.1-5.1 27-8a109 109 0 0 1 39-15.8Zm161.6 12a255 255 0 0 0-69.7 13.2A610 610 0 0 0 91.5 92.2a461 461 0 0 0-55.9 41.5c-14.6 12-26.4 27-34.8 44A180 180 0 0 1 41 137.4q4.4 11.4 12.2 20.8 7.6-9 24.5-23.1-5-8.7-7.7-18.4a590 590 0 0 1 60-34q41.6-21.2 86-35.5a236 236 0 0 1 65.7-12.6q21.6-.1 27.7 9.7 5.4 10-6.7 26.7a186 186 0 0 1-37.6 36.8q31.6-20.6 56.6-49 18.6-22.3 11.8-35.6-6.8-10.7-30.6-10.6m-170.3 6.8A172 172 0 0 0 46 54a81 81 0 0 0-8.4 20.5Q55.6 62 76 54.1a68 68 0 0 1 9.3-15.4q11.9-6 24.4-10.9 11.4-4.5 23-8.5M148.3 41q-20 .7-44.1 9.3-22.7 8-44 19Q46.6 76 34.8 85.8a94 94 0 0 0 1 36.3 178 178 0 0 1 31.4-23.4 27 27 0 0 1-.5-5.7q.1-8 1.4-15.4Q80.4 69.8 93.3 63q13.4-7.2 27.9-12.5 15-5.4 27.1-9.3m83.5 40.4q-40.2.8-88.7 21.1-19.1 8.5-37 21.6-25.5 18.3-47.2 41.2 9 9.6 20 17 9.4-11.1 20.3-20.7-3.7-3.3-7.3-6.8 25.2-27.8 83.4-55a277 277 0 0 1 29-10.6Zm-8 33.6c-41.2 4.2-80 21-111.3 48.3Q99.2 174.7 88.1 188a114 114 0 0 0 39.2 12.1q2.8-4.5 14.6-16.5-11.5-2.6-22-8 22.7-23 51.3-37.8 25.4-13.4 52.7-22.7m.9 37.3a116 116 0 0 0-46 13 123 123 0 0 0-42.8 35.5h5.6q37.2-.4 65-20a113 113 0 0 1-42.6 6.1q13.5-13.1 35-24.1 13.1-6.6 25.8-10.4"/>
  </g>
  <g id="shadow" fill="#000" fill-opacity=".2">
    <path d="M579.1 139.7a339 339 0 0 0 18.5-62.1q3.2-15 6.1-30.6 3.5-18.4 7.7-36.7l1.3-4h5a2138 2138 0 0 0-12.8 78v6.5a56 56 0 0 1 25.3-30q4.5-4 8.2-4.9 3.8-1 5.3 1.9 2 2.6-.2 11.1-2 8-4.3 16-5.3 19.3-10.9 38.6a13 13 0 0 1-1.2 10.8q-3 1-4.6-.2-1.6-1.4-2.3-3.6a20 20 0 0 1-.7-5v-5a577 577 0 0 0 9-26.9q2.1-7.1 3.8-14.1t2.4-13.3q-2-1.5-5 1a40 40 0 0 0-6.5 7.6q-3.7 5.2-7.5 12a531 531 0 0 0-16 29.7q-6.4 12-13.3 23.9-2.3 4-4.1 4.6Z"/>
    <path d="M508.1 139.7a17 17 0 0 1-4-10.6q-.4-6.2 1.9-13.5 2-7.3 6.2-15a151 151 0 0 1 29.5-38.8q4.8-4.3 8.3-6.2t5 0l-2.7 16.2-3.2 16.1q-1 4.6-3.5 8.4a8 8 0 0 1-3.2 2.7 5 5 0 0 1-4.3 0l.6-3.9 1-15.4-1.5-2.7q-5.9 4.1-10.2 9.6a76 76 0 0 0-13.8 27.5q-1.5 6.3-.8 12.5a12 12 0 0 0 4.7 8.2q3.8 3 11.4.9a71 71 0 0 0 19.8-9.2 227 227 0 0 0 28.9-22l-1.7 5.4q-.3.6-2.7 2.9-8.8 8.6-18.4 16.4-6 4.8-12.9 8.9a62 62 0 0 1-12.8 6.1q-5.8 2-11.9 1.3-5.6-.9-9.7-5.7"/>
    <path d="m472.5 74.1-1 2.7a133 133 0 0 0-3.3 11q7-8.8 14.3-18.4 7-9.8 12.5-19.6-3.6 1.1-7 3.8a52 52 0 0 0-15.4 20.5M455 142.3a26 26 0 0 1-5.3-12.1q-1.3-7.5-.4-15l-3.2 1.7q-3.7 1.7-7.6 2.4-1.8.3-2.4-.4-.6-.5.3-2.1 1-1.5 4-4.4l2.5-2.1 10.7-9a39 39 0 0 0 4.8-8.6q2-4.6 3.6-9.7l3.8-10.2q2-5.3 5.3-9.3 1.6-2.6 5.6-6.3 8-7.5 17.5-13.3 3.4-2.3 7.3-3.3 2.8-.7 3.4 1.3.4 2-2.7 8a90 90 0 0 1-9 13.3L482.5 76 472 88.7q-4.8 6-8.4 12.7-4.4 8.6-5.6 18.2-.6 4.8.3 8.9a8 8 0 0 0 4.4 5.6q3.9 1.8 8.6 1 5.2-1.2 10-3.8 5.1-2.7 10.4-6.7 9.9-7.5 18.6-16.5l6.8-6.9 1.4 2.8q.7 1.2-3 5.3a189 189 0 0 1-23 21.3q-7.5 6-14.5 9.9a42 42 0 0 1-13.4 5q-6.2 1-9.5-3.2"/>
    <path d="M382.4 139.7q3.9-10.8 7-21.7l11.9-43.6a301 301 0 0 1 7-21.8q-6.6 1.9-13.3 3.3-13.2 3.5-26.6 6.5l-5.2 1.2q-2 .4-3.7-.5l-2.6-2.3 6.6-5.3q24-2.7 46.8-9.7c16-5 31.7-10.6 47.2-17.7h7.3a3 3 0 0 1-.8 2.7q-1 1.5-2.6 2.6l-3 2.2-1.1.8-38.5 13.5-1.3 3.9q-6 17-10.8 34.3l-6 21.7q-4 13.5-7.8 27.2-.9 2.9-3 5a13 13 0 0 1-4 3q-1.8.6-3.1-.4t-.4-4.9"/>
    <path d="M282 101.5q-.1-1.2.5-2.3l1.9-1.6q1-.7 2.3-1l2-.4q7.8-2 16-3.3 19.3-4 38.7-7.8 3.5-.5 3.9.7.4 1.3-.8 3.3a16 16 0 0 1-3 4l-3.6 3q-4-.5-9.8.2-5.7.8-12 2.1l-12.7 3q-6.3 1.5-11.4 2.4-5.2.7-8.4.4-3.5-.4-3.6-2.7"/>
    <path d="M284 19.5q1.5-4.5 5.2-5.9 3.6-1.4 6.4.4l-2.7 8.2-1.6.2q-3 .1-5.8-.2-.5-.1-1.1-1.4-.6-.6-.4-1.3m-33.3 117.2v-2.4q.8-5.7 2-11.2l24.7-76.3q.5-1.6 2-2.2 1.4-.5 3-.8 2.3 0 4.4.3l-27.4 84.5q-.8 2.6.1 4.3 1 1.8 2.8 2.7 1.8 1.2 4 1.3 2 .2 3.9-.2.9 3.3-1.9 5.3a13 13 0 0 1-13.7.7 7 7 0 0 1-3.9-6.1"/>
    <path d="m217.6 90.6-.4-4.4-.8-6.6-1.5-10.8a5 5 0 0 1 2.7-2.5q1.5-.7 3-.7 1.6 0 2.7.8 1.4.8 1.3 2.4l3.5 49.2 39.2-68.2 1.1-1a36 36 0 0 1 5.6-4.4q1.6-.9 2.4 0 .1.6-.5 2.7-.6 1.5-1.4 2.8-10.3 16-20.2 32.6-3.8 7-6.8 14.6-9.5 20.8-19.5 41.2a24 24 0 0 1-3 4q-1.7 1.7-3.8 2.7a5 5 0 0 1-4.4.3q.5-8 .4-16 0-16.2.4-32.3Z"/>
    <path d="m171 131.5.4 1.3 1.9 3.4.6.8q6.3-3.3 10.7-9t7.1-12.5q7-20.5 5.6-42.1-.7-6-1.8-9.9-3 8-6.7 16a937 937 0 0 1-13.2 32l-3.8 10q-1.2 5-.8 10m-9 5.5q-1.7-5.8 0-13 1.5-7 4.7-15 3.4-7.8 7.5-15.8l7.7-15.4q3.6-7.4 5.9-14 2-6.5 1.6-11.2-.3-2.6-2.2-2.5-1.8 0-4.4.7-2.1.6-4.4.4-2 0-2.9-3 .4-.7 1.6-1.7l1.7-1.2q13.3-2 20.1 3 7 5 9 14 2.3 10.2.3 20.5c-2.4 15.8-8 30.9-16.3 44.4q-4.7 8.2-11.6 15-6 5.5-10.6 4.9-5.2-.7-7.6-10.1"/>
    <path d="M71 142.5q11.7-48.4 28.5-95.4 2.7-3.6 5.7-6.9 2-1.8 3.8-2.4 2-.7 3 1l7.8 13.8 13.6 62.8.4 1q1 2.4 2.9 4.2 1 .8 2.3 0 2.7-10 5-20l12.3-47.9q2.3-9 6-17.7 2.4-6 5.5-12.2 3-6.5 6.7-11a29 29 0 0 1 7.2-7.3 8 8 0 0 1 7.4-.8q.6 0 1.2 1t.3 1.6L183 14l-4 4.4q-2 2.4-3.3 4.4l-2.4 6.2q-3.2 10.5-6.6 20.9L163 61.4l-2.9 9.3q-2 6-3.4 12.3l-6.7 26.6q-2 5.9-3.7 11.8l-3.5 10q-1.6 2.9-4 5.2-1.2 1.3-2.6 1.6-1.5.4-2.4-1.3l-11-18.9L110 60.8l-3-2.6-27.6 84.3q-.7 2.3-2 2.7a4 4 0 0 1-2.7.3q-1.4-.4-2.6-1.4-1-.7-1.1-1.6"/>
  </g>
  <g id="text" fill="#0a0a0a">
    <path d="M576.9 137.5a339 339 0 0 0 18.5-62.1q3.2-15 6.1-30.6a918 918 0 0 1 7.7-36.7l1.3-4h5q-6 33.7-11.2 67.6-1 6.3-1.6 12.7v4l3-4.1 13.8-17.7q3.7-4.6 8.3-8.4 4.8-3.6 8.4-4.6 3.8-1 5.3 1.8 2 2.7-.2 11.2-2 8-4.3 16-5.3 19.3-10.9 38.5A13 13 0 0 1 625 132q-3 1-4.6-.1-1.6-1.4-2.3-3.6t-.7-5v-5a322.5 322.5 0 0 0 12.8-41.1q1.6-7 2.4-13.3-2-1.4-5 1a40 40 0 0 0-6.5 7.6q-4 6-7.5 12-8.5 14.5-16 29.7-6.4 12-13.3 24-2.3 4-4.1 4.7Z"/>
    <path d="M505.9 137.5a17 17 0 0 1-4-10.6q-.4-6.2 1.9-13.5 2-7.3 6.2-15a151 151 0 0 1 29.5-38.8q4.8-4.3 8.3-6.2t5 0l-1.1 6.3a524 524 0 0 1-5.9 30.6q-1 2-2.3 4a8 8 0 0 1-3.2 2.7 5 5 0 0 1-4.3 0l.6-4 1-15.4L536 75q-6 3.8-10.3 9.4a76 76 0 0 0-13.8 27.5q-1.5 6.3-.8 12.5a12 12 0 0 0 4.7 8.2q3.8 3 11.4.9a71 71 0 0 0 19.8-9.2 227 227 0 0 0 28.9-22l-1.7 5.4q-.3.5-2.7 2.9a273 273 0 0 1-18.4 16.4 203 203 0 0 1-12.9 9 62 62 0 0 1-12.8 6.1q-5.8 1.8-11.9 1.2-5.6-.9-9.7-5.7"/>
    <path d="m470.3 71.9-1 2.7q-2 5.4-3.4 11 7.2-8.8 14.4-18.4 7-9.8 12.5-19.6-3.6 1.1-7 3.8A52 52 0 0 0 470.3 72m-17.4 68.2a26 26 0 0 1-5.3-12.1q-1.3-7.5-.4-15l-3.2 1.7q-3.7 1.7-7.6 2.4-1.8.3-2.4-.4-.6-.5.3-2.1.9-1.5 4-4.4l2.5-2.1 10.7-9a39 39 0 0 0 4.8-8.6q2-4.6 3.6-9.7l3.8-10.2q2-5.3 5.3-9.3 1.6-2.6 5.6-6.3a106 106 0 0 1 17.6-13.3q3.2-2.3 7.2-3.3 2.8-.7 3.4 1.3.4 2-2.7 8a90 90 0 0 1-9 13.3l-10.7 12.9-10.6 12.6q-4.8 6-8.4 12.7-4.5 8.6-5.6 18.2-.6 4.8.3 8.9a8 8 0 0 0 4.4 5.6q3.9 1.8 8.6 1 5-1.2 10-3.7 5.4-2.8 10.4-6.6 9.9-7.6 18.6-16.5l6.8-7 1.4 3q.7.9-3 5.3-10.5 11.5-23 21.3-7.5 6-14.5 9.7-6.4 3.5-13.5 5-6.1.8-9.4-3.3"/>
    <path d="M380.2 137.5q3.9-10.8 7-21.7L399 72.2a301 301 0 0 1 7-21.8q-6.6 1.9-13.3 3.3l-26.6 6.5-5.2 1.2q-2 .3-3.7-.5l-2.6-2.3 6.6-5.3q24-2.7 46.8-9.7c16-5 31.7-10.6 47.2-17.7h7.3a3 3 0 0 1-.8 2.7q-1 1.4-2.6 2.6l-3 2.2-1.1.8-38.5 13.5-1.3 3.9q-6 17-10.8 34.3l-6 21.7q-4 13.5-7.8 27.2a13 13 0 0 1-3 5 13 13 0 0 1-4 3q-1.8.6-3.1-.4t-.4-4.9"/>
    <path d="M280.8 99.3q-.1-1.2.5-2.3l1.9-1.6 2.3-1 2-.4q7.8-2 16-3.3 19.3-4 38.7-7.8 3.5-.5 3.9.7.4 1.3-.8 3.3a16 16 0 0 1-3 4l-3.6 3q-4-.5-9.8.2-5.7.8-12 2.1l-12.7 3q-6.3 1.5-11.4 2.4-5.2.7-8.4.4-3.5-.4-3.6-2.7"/>
    <path d="M281.8 17.3q1.5-4.5 5.2-5.9 3.6-1.4 6.4.4l-2.7 8.2-1.6.2q-3 .1-5.8-.2-.5-.1-1.1-1.4-.6-.6-.4-1.3m-33.3 117.2V132a99 99 0 0 1 2-11.2l24.6-76.3q.6-1.6 2-2.2 1.5-.5 3.1-.8 2.3 0 4.4.3l-27.4 84.5q-.8 2.6.1 4.3 1 1.8 2.8 2.7 1.8 1.2 4 1.3 2 .2 3.9-.2.8 3.3-1.9 5.3a13 13 0 0 1-13.7.7 7 7 0 0 1-3.9-6.1"/>
    <path d="m215.3 88.4-.4-4.4-.8-6.6-1.5-10.8a5 5 0 0 1 2.7-2.5q1.5-.7 3-.7 1.6 0 2.7.8 1.4.7 1.3 2.4l3.5 49.2L265 47.6l1.1-1q2.6-2.6 5.6-4.5 1.6-.8 2.4 0 .1.6-.5 2.7-.5 1.5-1.4 2.8-10.3 16-20.2 32.6-3.8 7-6.8 14.6-9.5 20.8-19.5 41.2-1.4 2-3 4a12 12 0 0 1-3.7 2.7 5 5 0 0 1-4.4.3q.4-8 .3-16 0-11.4.3-22.6Z"/>
    <path d="m168.7 129.3.4 1.3 1.9 3.4.6.8q6.3-3.3 10.7-9 4.4-5.6 7.1-12.5 7-20.5 5.6-42.1-.7-6-1.8-9.9a293 293 0 0 1-6.7 16 937 937 0 0 1-13.2 32l-3.8 10q-1.2 5-.8 10m-9 5.5q-1.7-5.8 0-13a93 93 0 0 1 4.8-15q3.2-7.8 7.4-15.8l7.7-15.4q3.6-7.4 5.9-14 2-6.5 1.6-11.2-.3-2.6-2.2-2.5-1.8 0-4.4.7-2.1.6-4.4.4-2 0-2.9-3 .4-.7 1.6-1.7l1.7-1.2q13.3-2 20.1 3 7 5 9 14 2.3 10.2.3 20.5c-2.4 15.8-8 30.9-16.3 44.4q-4.8 8.2-11.6 15-6 5.5-10.6 4.9-5.2-.7-7.6-10.1"/>
    <path d="M68.8 140.3q11.7-48.4 28.5-95.4 2.7-3.6 5.7-6.9 2-1.8 3.8-2.4 2-.7 3 1l7.8 13.8 13.6 62.8.4 1q1 2.4 2.9 4.2 1 .8 2.3 0 2.7-10 5-20L154 50.5q2.4-9 6-17.5 2.5-6 5.6-12.3t6.6-11a29 29 0 0 1 7.2-7.3 8 8 0 0 1 7.4-.8q.7 0 1.3 1t.2 1.6l-7.4 7.6-4 4.4q-2 2.4-3.3 4.4l-2.3 6.1q-3.2 10.5-6.6 20.9l-3.8 11.6-2.9 9.3q-2 6-3.4 12.2l-6.7 26.9q-2 5.7-3.7 11.6l-3.5 10q-1.6 2.9-4 5.2-1.2 1.3-2.6 1.6-1.5.4-2.4-1.3l-11-18.9-12.8-57.2-3-2.6-27.6 84.3q-.7 2.3-2 2.7a4 4 0 0 1-2.7.3q-1.4-.4-2.6-1.4-1-.7-1.1-1.6"/>
  </g>
</svg>
