<svg xmlns="http://www.w3.org/2000/svg" viewBox="115 115 380 380">
  <path d="M467.8 216.2c-1.6.7-4 2.5-5.3 4l-2.4 2.5h-17.4c-17.3 0-17.4 0-23.2 3-4.8 2.3-12.7 9.8-47.7 45-39.7 39.8-42 42.5-42 45.7 0 5.2 4.6 8.6 9.3 6.8 1.3-.5 20.5-19.1 42.5-41.3 22-22 41.6-41.2 43.4-42.4 3.2-1.8 4.8-2 19.7-2h16.1l3.2 3.1c2.8 2.7 4.2 3.2 8.9 3.5 6.7.5 10.9-1.6 14-6.8 3.6-6.8 1.9-15.1-4.1-19.8-4.6-2.6-10-3-15-1.3m-18.9-76.3q-8 3.8-8.1 12.8v4.4l-66.9 67c-72.4 72.7-69.7 69.7-64.3 75a8 8 0 0 0 5.6 2.5c2.8 0 9-5.9 70-67 48.2-48.4 67.4-67 68.5-66.6 2.9 1 9.2-1.4 12.5-4.8a14.6 14.6 0 0 0-4.1-23.2c-5.2-2.6-7.9-2.6-13.2-.1M314 131.2c-8.2 5.7-9.1 19-1.6 24l2.6 1.7v15.4c0 13-.3 16-1.9 19.3a109 109 0 0 1-14.1 16.2L286.7 220l-7.7-3c-4.3-1.5-9.7-3.4-12-4a50 50 0 0 0-23.3.5c-2.8 1-20.4 18-64 61.8-53.4 53.5-60.2 60.6-60.2 63.4 0 4 3.1 7.3 7.2 7.3 2.8 0 7.8-4.7 53-50 27.3-27.5 50-49.7 50.1-49.6l3.6 9.9c7.5 22 24.4 46.4 49.6 71.5 24.8 24.7 50.9 42.2 72.7 49l6.7 2-50 50c-47.7 48-49.9 50.4-49.9 53.8 0 4.3 3 7.3 7.7 7.3 2.8 0 9.2-6.2 63-60.4 54.6-54.7 60.3-60.8 61.8-65.2q4.5-13.8-4-35l-2.4-6.3 12.6-12.7a154 154 0 0 1 15.2-14.2c3.1-1.7 36.1-2 36.1-.4 0 .5 1.7 2.1 3.7 3.5a15 15 0 0 0 23.3-12.3 15 15 0 0 0-23.3-12.3c-2 1.3-3.7 2.9-3.7 3.4 0 .6-6.1 1-15.5 1-17 0-24 1.3-30.3 5.3a443 443 0 0 0-28.5 27.4c-23.1 23.3-24.9 25.2-24.9 28.5 0 4.4 2.9 7.2 7.5 7.2 2.8 0 4.4-1 9.7-6.3 3.4-3.5 6.5-6.1 6.7-5.8.9.8 3.6 10.4 4.2 14.3 1.6 10.4-1.9 14.6-11.4 14.4-13.6-.4-35-11.4-57.5-29.5Q292.4 317 275 297c-16.8-20.6-30.6-47.5-30.6-59.7 0-3.9 2-8.7 3.9-9.8 3.8-2 15-.7 24 2.9l2.8 1.2-6.6 6.7c-5.4 5.7-6.4 7.4-6.4 10.1 0 5 5.5 9 9.5 7 1-.7 13.2-12.6 27.3-26.8 31.8-32 30.4-29.4 30.7-53.8.3-17.2.4-17.8 2.7-20.2 5.8-6.1 6.5-13.3 1.8-19.5-4.8-6.4-13.8-8.2-20-4m57.6-9.7a15 15 0 0 0-7.5 12.8c0 4.3 1.2 6.9 4.7 10.7 2.5 2.7 2.5 2.8 2.3 19.1-.1 9.1-.7 17.5-1.3 18.6-.5 1.2-19.7 20.9-42.6 44-36.4 36.5-41.7 42.2-41.7 44.9 0 5.8 5.4 9.6 10.1 7.2 1.2-.7 20.9-20 43.8-42.9 35.6-35.8 41.8-42.5 44.2-47.4 2.4-5.4 2.6-6.6 3-23.5.3-17.4.3-17.7 2.7-20a15 15 0 0 0-3.5-24 14 14 0 0 0-14.1.4" paint-order="stroke"/>
  <path d="M484 215.9c3.3 2.6 5.6 6.5 6.4 10.3a19 19 0 0 1-1.8 12.1q-5.2 8.4-15.9 7.8c-5-.4-7-1.2-10-4l-2.7-2.6h-15.3c-14.7 0-15.8 0-18.6 1.7-1.7 1-21 20-43 42.1-22 22.2-41.5 41-43.3 41.8-3 1-6.2.5-8.3-1a10 10 0 0 1-3.7-7.6c0-4 2.8-7.4 42.6-47.2 35-35.2 43.2-42.9 48.2-45.4 6.3-3.1 6.8-3.2 24.1-3.2h16.5l1.8-2c1.5-1.6 4.4-3.6 6.1-4.4a22 22 0 0 1 16.6 1.4h.2Zm-15.5 2.1c-1.4.7-3.4 2.1-4.5 3.4l-2.4 2.6-.6.7h-18.3c-17.3 0-17-.1-22.3 2.7-4.5 2.2-12.2 9.5-47.2 44.7-39.6 39.8-41.5 41.7-41.5 44.3q0 3.1 2.1 4.4 2 1.6 4.6.6c1-.3 19.8-18.7 41.8-40.9 22-22 41.7-41.3 43.8-42.6 3.5-2 5.7-2.4 20.7-2.4h17l3.7 3.7c2.4 2.4 3.2 2.6 7.6 2.9 6.2.6 9.5-1 12.2-5.9q2.4-4.5 1.3-9.2-.9-4.8-4.8-7.9a15 15 0 0 0-13.2-1m-5.5-79.8c4.8 2.5 8.1 7.2 9 12s-.7 10.3-4.4 14.4a22 22 0 0 1-7.1 4.6c-2.2.8-4.7 1.1-6.6.9l-.2.2-3 2.6q-4 3.6-12.2 11.5c-11 10.7-27.8 27.4-51.8 51.5-61.2 61.3-68 67.4-71.5 67.6a11 11 0 0 1-7-3q-1-.9-2-2c-.5-.7-1.1-2-1-3.3q.2-2.9 5.9-9.6c7.7-9 25.2-26.5 61.4-62.8l66.3-66.5v-3.6q.5-10 9.3-14.6c5.7-2.6 9.2-2.6 14.9.1m-13.2 3.5c-5 2.1-7.1 5.5-7 11v5.3l-67.4 67.6c-36.2 36.3-53.6 53.6-61.3 62.6-3.7 4.3-4.8 6.1-5 7.3 0 .3 0 .2.3.6l1.6 1.6a5 5 0 0 0 4.2 1.9c2.2.2 7.5-5.3 68.6-66.5A4912 4912 0 0 1 448 170l3.2-2.7a6 6 0 0 1 3.2-1q1.5.5 4.7-.8 3.3-1.2 5.7-3.6 4.5-4.8 3.2-11c-.7-3.9-2.8-7.2-6.8-9C456.4 139.3 454.6 139.3 449.8 141.7M335.6 134c2.5 3.4 3.8 7.4 3.4 11.1-.3 3.7-2.3 7.7-5.4 11-2 1.8-1.8 1.8-2 18.8-.3 12.2 0 18.2-4 25-3.7 6.7-11.5 14.2-27.4 30.2a665 665 0 0 1-27.8 27 9 9 0 0 1-8.4-1c-2.2-1.4-4-4.5-4-7.6 0-3.3 1.5-5.7 7-11.5l4.5-4.6c-8.9-3.5-19-5-22.3-3-1.6.6-3 4.5-3 8 0 11.7 13.6 38 30.3 58.4q17.3 20 37.3 37c22.2 18 43 28.8 56.3 29.1 4.4.2 6.7-.6 8.2-2.5s2-4.7 1.1-9.6c-.4-2.9-2-8.9-3-11.7l-4.5 4.2c-5.5 5.4-7.7 6.9-11.1 6.9-2.7 0-5.3-1-6.9-2.5a10 10 0 0 1-2.6-6.7c0-4 2.3-6.6 25.4-29.9q13.8-14.4 28.6-27.5l.2-.1c6.7-4.3 14.3-5.7 31.5-5.7a187 187 0 0 0 14.3-.6q1.5-2 3.8-3.5a18 18 0 0 1 17.4-.9c5 2.7 9 8.4 9 14.9s-4 12.2-9 14.8-12 2.6-17.5-.9a18 18 0 0 1-3.8-3.6h-.4l-3.6-.3a187 187 0 0 0-29.9 1c-1.2.7-7.9 7-14.7 14l-11.7 11.7 2 5.1c5.6 14.4 7 26.8 4 36.4-1.7 4.7-7.7 11.2-62.2 65.9-53.9 54.2-61 61-64.5 61q-4.3-.1-7-2.6a10 10 0 0 1-2.7-6.7c0-4.1 2.8-7.2 50.5-55.1l47.6-47.8-3.5-1c-22-6.9-48.5-24.7-73.5-49.5-25.3-25.2-42.4-50-50.1-72.2l-2.5-7-12.6 12.3-35.3 35.2c-45.2 45.2-50.9 50.5-54.4 50.5-2.5 0-5-1.2-6.6-2.7a10 10 0 0 1-2.6-6.6c0-3.5 7.3-11.3 60.8-64.8 43.6-43.8 61.5-61 64.6-62.3 5-2 18-2.3 24.6-.6 2.4.7 8 2.6 12.3 4.2l6.4 2.5 11.4-11.2c7-7 12.8-13.6 13.7-15.6 1.5-3 1.7-5.7 1.7-18.5V158l-1.6-1c-4.2-3-6.4-8.5-6-13.5.2-5 3-10.6 7.5-13.8 3.5-2.3 8-3.1 12-2.4 4 .8 8 3.3 10.7 6.8m-11.5-2.8a11 11 0 0 0-9 1.7 13 13 0 0 0-5.9 10.8c-.2 4.2 1 7.8 4.3 9.8l2.6 1.7.9.6v16.5c0 13-.4 16.5-2 20.2-1.3 2.5-7.6 9.7-14.6 16.7l-12.3 12.2-.9.9-8.9-3.5c-4.3-1.5-9.6-3.4-11.9-4-6-1.7-17.7-1.5-22 .4-2.4.8-19.7 17.7-63.3 61.4-53.4 53.5-59.6 60-59.6 62q0 2.3 1.5 3.8 1.3 1.5 3.7 1.5c2.1 0 6.4-4.2 51.5-49.4l50.3-49.7.3-.2.5-.2c.3 0 1.3.2 2 .5l.2.1 3.7 10.5c7.5 21.8 24.2 45.8 49.2 70.7 24.7 24.7 50.3 42 71.9 48.5l6.6 2.1 3.2 1-52.2 52.4c-47.8 47.9-49.4 49.5-49.4 52.3q0 2.5 1.5 3.8 1.4 1.5 4.2 1.5c2 0 7.8-5.6 61.7-59.8 54.5-54.7 60-60.4 61.2-64.4q4.4-13-4-33.6l-2.4-6.3-.4-1.3 13.4-13.6c7-7 14-13.6 15.7-14.5 2-1 11.5-1.6 20.2-1.7a192 192 0 0 1 15.8.6q.9 0 1.5.3l.8.4c.3.2.8 1.1.8 1.7q0-.2 2.8 1.8a12 12 0 0 0 13.2.6c4.3-2.2 7-6 7-11.2 0-5.4-2.7-9.1-7-11.3a12 12 0 0 0-13.3.6q-2.7 2-2.7 1.8c0 .6-.5 1.5-.8 1.7l-.8.4-1.1.3-3.4.3q-4.2.3-11.4.3c-16.8 0-23.2 1-29.1 4.9a439 439 0 0 0-28.3 27.2c-23 23.2-24.3 24.5-24.3 27 0 2 .4 3 1.4 3.9q1.3 1.4 4 1.4c2.4 0 3.3-.6 8.4-5.7a99 99 0 0 1 7-6.2l.8-.3c.4 0 1.3.5 1.9.9 1.2 2 4 11.2 4.6 15.2q1.2 8.4-2 12.7c-2.2 2.8-6.3 4-11.4 4-14.1-.5-36.1-11.7-58.7-30a358 358 0 0 1-37.9-37.5c-16.9-20.8-31.1-48.3-31.1-61 0-4.2 2.5-10 5-11.5 4.4-2.2 16.3-.9 25.6 2.7l2.9 1.2 2.7 1.1-8.6 8.9c-5.3 5.5-6 6.5-6 8.7q.1 3 2.5 4.5c1.5 1.1 2.8 1.6 4.2.6.8-.4 12.7-12.1 26.8-26.3 15.9-16 23.3-23.2 26.8-29.3 3.4-6 3.1-10.9 3.3-23.1.3-17.3.7-18.7 3.2-21.6q4-4.1 4.3-8.5.6-4.3-2.6-8.4-3.3-4.4-8.3-5.2m62.6-11.9c4.8 2.8 8 7.7 8.8 12.6a18 18 0 0 1-4.8 14.6c-2 1.5-1.8 1.1-2.2 18.6-.3 17-.6 18.6-3.1 24.3-2.5 5.1-9 12.1-44.6 48-23 22.9-42.9 42.3-44.2 43.1-3 1.4-6.6 1-9-.6-2.2-1.6-4-5-4-8.3s5.8-9.8 42.2-46.4c22.9-23 41.9-42.4 42.2-43.3v-.1c.5-.8 1-8.7 1.1-17.7.2-16.3.5-15.7-1.7-17.7a17 17 0 0 1-5.2-12.1 18 18 0 0 1 8.4-14.5c4.7-3 11.2-3 16.1-.5m-14 3.9a12 12 0 0 0-6.5 11.1c-.2 3.9.7 5.8 4.1 9.4 2.7 3.3 3 4.1 2.8 20.5a101 101 0 0 1-1.5 19.3 1169 1169 0 0 1-43 44.5c-36.3 36.6-41 41.6-41 43.6q0 3.6 2.4 5 2.2 2 4.7.4c1-.5 20.4-19.6 43.3-42.5 35.6-35.8 41.6-42.2 43.8-46.8 2.3-5.2 2.4-6 2.7-22.7.4-17.4.7-18.4 3.4-21.4 3.3-3.1 4.2-7 3.6-11.1q-.7-6.3-6.7-9.7c-4-2.3-8.4-2.2-12.1.4"/>
</svg>