<svg xmlns="http://www.w3.org/2000/svg" viewBox="0 0 2373 479"><path d="M679 10.8c6.7-.7 13.3-.5 20-.5h398.5v126.4l-858.3-.1 83-125.7h243c.2 32.3-.1 64.6.2 96.9a129 129 0 0 1 113.7-97M1755.9 11.2c9.6-1.2 19.4-.9 29-1h421.6v126.4l-563.7-.1a129 129 0 0 1 113-125.3M1117.7 10.9h127v125.7h-127Z"/><path d="M1514.5 136.6V10.8h127v125.7ZM2285.5 15.8c17.5-4 36.8 1.6 49.7 14A56 56 0 0 1 2351 78c-2.7 16-12.5 31-27 38.8A55 55 0 0 1 2270.1 116.8c-15.2-8-25.3-24-27.4-40.9a54.6 54.6 0 0 1 42.8-60.2m1.9 8.9a45.8 45.8 0 0 0-18 81 46 46 0 0 0 47 4.9 45 45 0 0 0 25.5-33.3c2.5-14-2.1-29-11.8-39.5a46 46 0 0 0-42.8-13.1"/><path d="M2273 40.6c11 .3 22-.8 32.9 1 8 1.2 13.8 9.5 12.3 17.4-1 8-8.7 13.8-16.5 14.1 4.7 1.8 7.6 6 10.4 9.9q5.3 8.1 10.4 16.4h-11.6c-4.3-7.3-8-15.3-13.7-21.6-3.7-4.2-9.7-3.3-14.6-3.4v25h-9.5Zm9.5 8v17.7c6.2-.1 12.4.5 18.5-.7 3.4-.5 6.5-3 7.1-6.6 1-4.3-2-8.8-6.3-9.7-6.3-1.3-12.9-.6-19.3-.8M1117.7 142q63.5 3.2 127 6.6V304a37.3 37.3 0 0 0 37.3 41.1h181c6.7-.2 13.5.4 20.2-.5a37 37 0 0 0 31.3-38.8V162.5q63.5 3.1 127 6.5v170.3H2062c5 0 10.2.4 14.9-1.7 8.2-3.2 13.9-11.8 13.8-20.6 0-8.9-5.8-17.3-14-20.5-3.8-1.6-7.8-1.6-11.7-1.8l-279-17.1c-35-1-70-13.1-97.2-35.6a127 127 0 0 1-43.7-72.8c147.3 7.4 294.6 15 442 21.3A128.6 128.6 0 0 1 2205 300c2 13 1.3 26 1.3 39a129 129 0 0 1-35.1 86.2 129 129 0 0 1-92.3 40.5h-439.6V363.6c-6.2 32-25.2 61.2-52 79.7-21.5 15.2-48 23.1-74.4 22.4h-254c-12 0-24.2.5-36-1.6a126 126 0 0 1-103.4-102.5A130 130 0 0 1 1013 464.2a166 166 0 0 1-28.9 1.5H433.9V156q279.6 18.1 559 36.5c28.6 0 57.2 9.3 79.9 26.9 21.8 16.7 38 40.7 44.9 67.3ZM565.3 339.3H984c10.3.2 20-8 21.7-18.2 2-9.4-3.3-19.7-12-23.8-5.1-2.8-11.1-2.3-16.7-2.8l-286-17.8a164 164 0 0 1-76-28.9 128 128 0 0 1-49.6-72c-.3 54.5 0 109-.1 163.5M22.3 465.7l211.9-321.4 146 8.4-200.8 313Z"/></svg>