<svg xmlns="http://www.w3.org/2000/svg" xmlns:xlink="http://www.w3.org/1999/xlink" id="svg3358" fill="#c4122e" viewBox="0 0 72 38"><path stroke-width=".1" d="M23.5 25.2h-3.2v12.5h3.2Z"/><use xlink:href="#a" transform="translate(33)"/><path id="a" d="M16 28.8c-.1 0-1.1-.6-2.6-.6-2 0-3.5 1.4-3.5 3.3s1.4 3.3 3.5 3.3c1.5 0 2.5-.6 2.6-.6v3.4q-.6.2-2.9.4c-3.5 0-6.6-2.5-6.6-6.5 0-3.7 2.8-6.5 6.6-6.5q2.3.2 3 .5Z"/><path d="M59 28.2a3.2 3.2 0 0 0-3.3 3.3c0 1.8 1.3 3.3 3.2 3.3s3.3-1.5 3.3-3.3-1.4-3.3-3.3-3.3m6.6 3.3c0 3.6-2.7 6.5-6.6 6.5a6.4 6.4 0 0 1-6.6-6.5c0-3.6 2.8-6.5 6.6-6.5s6.6 3 6.6 6.5M35.5 28s-1.4-.3-2.5-.3q-1.9 0-2 1c0 .8 1 1 1.5 1.2l.9.3q3 1.1 3 3.6c0 3.1-2.8 4.2-5.2 4.2-1.7 0-3.3-.3-3.4-.4v-2.9c.3.1 1.6.5 3 .5q2.3 0 2.3-1.1-.2-1-1.4-1.3l-.7-.2c-1.8-.6-3.2-1.6-3.2-3.7 0-2.3 1.7-3.9 4.6-3.9 1.6 0 3 .4 3 .4Z"/><g id="b" fill="#15495d"><path d="M3.1 11.8a1.6 1.6 0 0 0-3.1 0v3.3a1.6 1.6 0 0 0 3.1 0ZM11.7 7.5a1.6 1.6 0 0 0-3.1 0V15q.1 1.5 1.6 1.6 1.3-.1 1.5-1.6ZM20.4 1.6a1.6 1.6 0 0 0-3.1 0v16.6a1.6 1.6 0 0 0 3.1 0ZM29 7.5a1.6 1.6 0 0 0-3.1 0V15q0 1.5 1.5 1.6 1.5-.1 1.6-1.6ZM37.6 11.8a1.6 1.6 0 1 0-3.1 0v3.3q0 1.5 1.5 1.6 1.5-.1 1.6-1.6Z"/></g><use xlink:href="#b" transform="translate(34.4)"/><path d="M70.2 36.1v.2h-.6v1.5h-.2v-1.5h-.6v-.2ZM70.3 36.1h.4l.5 1.4.4-1.4h.4v1.6h-.2v-1.4l-.5 1.5H71l-.5-1.4v1.4h-.2Z"/></svg>