<svg xmlns="http://www.w3.org/2000/svg" id="svg3086" viewBox="-1.14 -1.14 130.28 40.44"><path fill="#e60012" stroke-width="1.33" d="M47.73 21.48 54.43.64h-7.84l-3.96 12.35-.05-.46-.02-.47-.07-.43-.05-.46-.1-.44-.1-.44-.12-.44-.12-.43-.15-.44-.14-.41-.2-.44-.16-.4-.22-.4-.22-.41-.25-.42-.24-.38-.5-.7-.56-.66-.59-.6-.65-.6-.66-.53-.7-.48-.75-.44-.78-.4-.8-.37-.83-.32-.85-.27-.86-.23-.93-.18-.92-.16-.95-.1-.94-.05-1-.03-1 .03-1 .07-1 .12-1.03.15-1.01.2-1.05.23-1.02.3-1.04.33-1.04.36-1.03.44-1.04.46-1.02.52-1.02.55-1 .59-.98.65-.98.68-.92.7-.9.73-.85.76-.82.77-.78.8-.75.83-.68.85-.66.85-.63.85-.55.9-.53.87-.5.9-.43.92-.41.9-.34.92-.31.9-.27.92-.2.92-.16.9-.12.92-.06.9-.02.87.02.88.1.87.15.84.16.86.25.82.31.78.34.8.42.76.46.72.48.68.53.63.57.6.6.56.63.51.66.5.7.43.73.4.75.37.78.32.82.29.83.24.84.2.88.17.87.14.93.08.92.05h.92l.94-.03.98-.07.97-.1.97-.17.97-.17 1-.24.99-.27.97-.32 1-.34 1-.4.96-.42.97-.48.97-.51.97-.56v-1.55l-.82.43-.8.4-.83.35-.83.34-.84.29-.83.27-.82.24-.83.2-.82.17-.83.12-.8.12-.83.05-.8.05h-.78l-.8-.02-.74-.08-.78-.1-.73-.12-.73-.14-.7-.2-.7-.24-.68-.24-.66-.3-.63-.31-.6-.36-.59-.37-.58-.4-.53-.47-.52-.49-.46-.5-.46-.54-.4-.58-.42-.64-.34-.67-.32-.68-.26-.7-.22-.73-.17-.74-.13-.74-.06-.76-.05-.78v-.78l.05-.76.09-.8.15-.78.17-.8.22-.8.24-.81.31-.77.32-.8.39-.79.41-.77.43-.77.51-.76.52-.75.55-.73.61-.72.63-.71.68-.7.7-.68.73-.66.77-.63.8-.6.83-.59.85-.55.87-.51.88-.5.9-.43.87-.39.9-.36.9-.31.9-.3.9-.24.9-.22.86-.14.9-.14.88-.1.87-.05h.85l.85.02.82.05.83.1.8.14.77.17.78.22.73.24.73.3.7.3.68.38.63.38.6.44.61.48.54.51.53.53.49.59.43.63.37.56.31.56.27.56.24.6.2.58.16.6.13.64.12.63.07.66.03.66.02.67-.02.68-.05.7-.08.7-.1.71-.12.73-.16.78-.23.77-.24.76-.26.72-.3.71-.34.7-.36.68-.39.69-.43.65-.46.65-.49.63-.53.63-.59.6-.6.62-.63.58-.68.58.31.08.32.05.32.04.33.05.37.05.36.05h1.25l.52-.03.54-.05.5-.1.37-.06.39-.08.36-.1.36-.12.35-.12.36-.15.34-.14.34-.17.34-.17.32-.17.3-.2.33-.2.31-.2.3-.23.29-.23.29-.25.26-.24.27-.27.26-.27.25-.26.24-.3.24-.29.22-.29.2-.3.22-.33.17-.32.19-.3.17-.35.15-.34.14-.33.14-.37Z"/><path stroke-width="1.33" d="m58.4.58-9.07 28.57h7.84l3.54-11.22.05-.07v-.05l.17-.53.14-.34.2-.34.19-.31.22-.32.22-.3.26-.26.3-.24.29-.24.29-.22.34-.2.33-.14.35-.15.36-.12.39-.1.39-.06.39-.03.19.03.17.04.17.05.17.07.15.1.14.1.15.09.11.12.12.15.1.12.1.17.07.15.06.16.04.17.03.17v.17l-.03.35-.07.31-4.13 12.72h7.9l4.65-14.5.07-.2.07-.23.05-.24.03-.24.07-.27.05-.3.02-.3.03-.3-.03-.46-.07-.46-.1-.4-.14-.42-.2-.4-.22-.36-.26-.36-.3-.31-.29-.3-.34-.26-.36-.23-.39-.21-.4-.14-.42-.13-.44-.1-.46-.04h-.22l-.19-.05h-.27l-.6.02-.59.05-.55.07-.59.1-.55.12-.54.17-.53.17-.53.22-.52.24-.49.24-.48.3-.46.29-.46.34-.41.34-.41.39-.4.38L66.25.58ZM24.6 7.8l-.5.01-.54.03-.5.05-.52.07-.5.05-.52.1-.46.1-.46.09-.46.15-.44.14-.41.15-.42.17-.4.17-.4.22-.38.2-.36.21-.37.24-.36.24-.34.25-.32.26-.34.27-.3.3-.3.26-.3.3-.26.3-.3.35-.28.36-.3.39-.29.44-.29.46 7.43.8.3-.44.32-.39.35-.31.31-.27.25-.15.24-.17.32-.17.36-.15.38-.1.4-.1.38-.08.42-.05h.44l.4.02.25.03.24.07.24.05.27.1.26.1.27.11.27.12.24.12.02.25.03.24-.03.25-.02.23-.05.25-.07.22-.1.22-.1.22-.75.26-.75.23-.73.19-.73.16-.4.1-.54.15-.65.14-.76.15-.39.1-.38.07-.44.07-.46.1-.49.07-.48.1-.54.1-.53.1-.95.19-.87.21-.82.25-.76.26-.68.3-.63.31-.58.32-.51.36-.44.39-.4.39-.4.41-.36.44-.15.24-.17.25-.12.24-.14.26-.13.29-.12.28-.1.31-.09.32-.08.3-.04.3-.05.29-.02.3v.26l.02.26.02.27.05.27.07.24.08.24.07.25.1.24.12.22.12.21.14.2.15.22.17.2.17.19.2.2.21.16.22.17.22.15.27.15.26.11.3.12.31.1.37.08.36.07.41.04.46.05.49.03h1.18l.66-.03.68-.07.65-.12.64-.13.63-.16.6-.2.57-.22.33-.11.31-.16.35-.16.36-.2.54-.29.53-.32.53-.35.54-.44-.08.24-.04.22-.03.21v.64l.07.39.05.17.07.16.08.18.1.17v.05h7.57l-.08-.18-.05-.19-.04-.22-.03-.22-.02-.24.02-.24.03-.24.07-.25.68-2.16.6-1.91.57-1.73.48-1.5.44-1.34.36-1.16.34-1.02.27-.87.07-.25.04-.22.05-.24.03-.25.02-.4v-.27l-.02-.5-.08-.52-.1-.49-.16-.45-.2-.45-.24-.43-.27-.39-.3-.36-.35-.36-.36-.3-.4-.29-.4-.24-.44-.2-.46-.16-.48-.12-.52-.1-.48-.08-.56-.07-.6-.07-.64-.05-.65-.05-.68-.03-.7-.01h-1.24Zm92.52 0-.5.01-.54.03-.51.05-.51.05-.51.07-.5.1-.5.1-.43.12-.46.12-.44.14-.4.15-.45.17-.39.17-.38.2-.4.21-.36.22-.36.22-.37.24-.33.25-.33.26-.33.26-.31.3-.3.27-.29.29-.29.33-.29.35-.29.36-.27.39-.29.44-.3.46 7.41.8.34-.44.32-.39.3-.31.35-.27.21-.15.25-.17.34-.17.36-.15.37-.1.38-.1.42-.08.41-.05h.41l.44.02.46.1.53.15.28.1.26.1.27.1.24.13.03.25V14l-.03.23-.05.25-.08.22-.1.22-.09.22-.77.26-.73.23-.73.19-.73.16-.44.1-.53.15-.63.14-.75.15-.39.1-.4.07-.45.07-.43.1-.5.07-.5.1-.5.1-.54.1-.95.19-.9.21-.8.25-.75.26-.7.3-.64.31-.55.32-.51.36-.46.39-.42.39-.36.41-.37.44-.16.24-.15.25-.15.24-.11.26-.13.29-.12.28-.12.31-.1.32-.05.3-.07.3-.02.29-.03.3v.26l.03.26.02.27.05.27.05.24.07.24.1.25.1.24.12.22.12.21.12.2.14.22.2.2.17.19.2.2.19.16.22.17.24.15.24.15.3.11.28.12.31.1.35.08.39.07.4.04.47.05.46.03h1.19l.68-.03.65-.07.66-.12.66-.13.6-.16.6-.2.59-.22.34-.11.32-.16.34-.16.36-.2.5-.29.57-.32.53-.35.54-.44-.08.24-.05.22-.02.21-.03.25.03.39.07.39.05.17.08.16.07.18.1.17v.05h7.56l-.07-.18-.07-.22-.03-.21-.05-.24v-.24l.03-.25.02-.22.06-.22.7-2.16.6-1.91.54-1.73.49-1.5.4-1.34.37-1.16.31-1.02.3-.87.12-.47.1-.49.01-.4.03-.27-.03-.5-.06-.52-.13-.49-.14-.45-.2-.45-.24-.43-.26-.39-.32-.36-.34-.36-.36-.3-.4-.29-.4-.24-.47-.2-.46-.16-.46-.12-.5-.1-.52-.08-.56-.07-.58-.07-.63-.05-.66-.05-.67-.03-.7-.01h-1.23Zm-35.74.14L76.7 22.45l-.08.24-.04.25-.05.22-.03.24-.07.29-.05.29-.04.27v.3l.02.45.07.44.1.43.15.42.16.38.22.39.27.34.26.32.32.29.34.26.36.25.4.19.4.15.42.11.44.1.45.03.2.05H82l.6-.05.55-.07.56-.12.56-.13.53-.14.54-.2.53-.19.5-.24.5-.24.48-.3.48-.29.44-.32.44-.33.44-.37.38-.39-.9 2.84h7.77l6.72-20.67h-7.88l-3.62 11.23-.05.15-.14.49-.15.36-.17.34-.19.32-.22.3-.24.3-.27.27-.27.27-.29.21-.31.22-.35.2-.34.14-.36.15-.36.12-.37.1-.39.05-.4.04-.18-.03-.17-.04-.17-.05-.17-.07-.14-.07-.15-.1-.12-.1-.12-.11-.12-.16-.1-.12-.07-.17-.07-.14-.07-.17-.03-.2-.03-.17-.02-.19.05-.32.07-.32 4.07-12.73ZM25.87 19l-.37 1.24-.12.34-.15.32-.14.31-.14.3-.18.29-.17.26-.2.27-.19.22-.2.22-.18.22-.25.18-.24.23-.24.2-.29.16-.31.17-.32.17-.24.12-.25.1-.26.1-.28.07-.26.07-.27.05-.56.1-.53.05h-.3l-.28-.03-.25-.05-.21-.04-.2-.08-.17-.1-.14-.14-.17-.17-.1-.15-.1-.17-.07-.17-.05-.2-.02-.2v-.2l.05-.22.07-.24.07-.2.12-.19.12-.17.13-.2.17-.17.17-.17.17-.14.19-.15.22-.12.27-.14.31-.12.34-.15.83-.27 1-.3.24-.06.29-.07.46-.1.46-.12.45-.13.47-.1.46-.11.43-.15.47-.12Zm92.51 0-.36 1.24-.17.47-.2.45-.24.44-.26.41-.3.4-.31.36-.37.34-.36.31-.42.27-.4.26-.44.22-.48.2-.47.14-.51.13-.5.09-.54.05h-.58l-.24-.05-.22-.07-.2-.07-.17-.13-.17-.14-.14-.17-.1-.15-.1-.17-.07-.17-.05-.2-.02-.2v-.2l.05-.22.07-.24.07-.2.1-.19.12-.17.14-.2.15-.17.17-.17.2-.14.19-.15.22-.12.26-.14.3-.12.36-.16.8-.26 1.02-.3.24-.06.29-.07.46-.1.46-.12.46-.13.47-.1.43-.11.46-.15.47-.12ZM79.05 36.14v-.9h2.23v2.86h-.83v-.31l-.3.14-.35.13-.17.04-.2.03-.16.02h-.17l-.41-.02-.37-.05-.16-.05-.18-.07-.14-.07-.15-.08-.15-.1-.14-.1-.12-.09-.12-.12-.1-.15-.1-.12-.09-.15-.07-.16-.15-.32-.1-.36-.05-.34-.02-.39.02-.39.08-.38.1-.35.14-.34.1-.15.1-.14.1-.14.11-.12.12-.13.15-.12.14-.1.17-.07.25-.12.29-.1.34-.05h.59l.2.03.2.02.2.05.19.05.17.07.15.1.14.1.12.1.12.12.1.11.1.16.07.14.07.14.05.17.05.2-.87.17-.08-.2-.1-.17-.12-.14-.14-.13-.2-.1-.19-.06-.22-.05h-.44l-.14.03-.17.04-.14.05-.15.07-.12.07-.12.1-.1.1-.12.15-.08.14-.07.15-.05.17-.05.19-.02.17-.02.2v.42l.02.19.02.16.05.2.05.16.07.15.1.15.1.14.1.1.12.1.12.07.15.07.14.05.17.05.15.02h.17l.26-.02.22-.02.2-.03.19-.05.14-.07.15-.08.13-.1.14-.09v-.66Zm-8.61-.68v-.17l.02-.2.05-.17.02-.2.15-.38.17-.36.1-.18.1-.16.11-.14.15-.15.15-.13.14-.12.17-.09.15-.1.26-.07.27-.08.27-.05h.62l.25.05.27.08.24.09.22.1.22.14.2.15.18.2.15.19.15.2.12.21.12.24.07.28.05.26.05.26v.57l-.05.26-.05.27-.07.24-.12.24-.12.22-.13.22-.17.2-.17.16-.21.15-.2.15-.24.12-.24.07-.27.07-.26.05h-.57l-.26-.05-.27-.07-.24-.07-.24-.12-.22-.12-.2-.18-.17-.17-.16-.19-.15-.2-.12-.21-.1-.24-.07-.25-.07-.26-.03-.27Zm1.07-.02.02.33.07.32.05.17.07.14.07.15.1.12.1.12.12.12.12.1.15.08.15.06.14.06.2.02.16.02.2-.02.17-.02.17-.06.14-.06.15-.08.12-.1.1-.12.12-.12.07-.14.07-.15.07-.15.05-.14.08-.34.02-.34-.02-.34-.08-.32-.05-.16-.07-.15-.07-.12-.07-.15-.1-.12-.12-.1-.12-.1-.15-.07-.14-.07-.17-.05-.17-.02-.2-.02-.2.02-.16.02-.17.05-.15.07-.12.07-.14.1-.1.12-.1.13-.1.12-.07.14-.07.15-.05.14-.07.34Zm-16.07 2.64v-5.3h.9l2.43 3.55v-3.55h.97v5.3h-.95l-2.38-3.44v3.44Zm-5.67 0v-5.3h1.05v2.1h2.35v-2.1h1.02v5.3h-1.02v-2.3h-2.35v2.3Zm-10.36 0v-5.3h3.8v.9h-2.77v1.16h2.57v.9h-2.57v1.43h2.87v.9Zm44 0v-2.23l-1.86-3.07h1.21l1.2 2.1 1.18-2.1h1.19l-1.87 3.1v2.2Zm-16.64 0v-5.24h1.05v4.34h2.33v.9Zm-6.01-2.62v-.17l.02-.2.02-.17.05-.2.13-.38.17-.36.12-.18.1-.16.11-.14.15-.15.12-.13.17-.12.15-.09.17-.1.24-.07.27-.08.29-.05h.61l.26.05.26.08.25.09.22.1.21.14.2.15.2.2.14.19.14.2.13.2.1.25.1.28.04.26.05.26v.57l-.05.26-.05.27-.1.24-.1.24-.12.22-.14.22-.15.2-.19.16-.2.15-.21.15-.22.12-.25.07-.26.07-.27.05h-.57l-.28-.05-.24-.07-.24-.07-.24-.12-.22-.12-.2-.18-.17-.17-.17-.19-.14-.2-.12-.21-.1-.24-.1-.25-.05-.26-.04-.27Zm1.06-.02.03.33.07.32.05.17.07.14.07.15.1.12.1.12.11.12.13.1.12.08.17.06.15.06.2.02.16.02.2-.02.17-.02.16-.06.15-.06.14-.08.13-.1.1-.12.1-.12.1-.14.06-.15.08-.15.04-.14.07-.34.03-.34-.03-.34-.07-.32-.04-.16-.08-.15-.07-.12-.07-.15-.12-.12-.1-.1-.13-.1-.14-.07-.15-.07-.16-.05-.18-.02-.19-.02-.2.02-.16.02-.17.05-.15.07-.14.07-.12.1-.1.12-.12.13-.08.12-.07.14-.07.15-.05.14-.07.34Zm-14.14.7 1.06.31-.04.22-.1.2-.07.16-.1.18-.12.16-.12.12-.13.12-.14.13-.15.1-.17.1-.16.07-.18.05-.19.04-.2.03-.18.02h-.51l-.25-.02-.24-.07-.25-.08-.21-.1-.22-.12-.2-.15-.16-.16-.17-.2-.15-.22-.12-.24-.12-.24-.08-.27-.05-.29-.04-.26v-.3l.02-.27.02-.28.05-.27.1-.27.1-.24.12-.25.15-.21.17-.2.19-.17.2-.14.2-.12.23-.12.24-.08.27-.05.27-.05h.53l.22.03.24.04.2.08.21.07.17.1.2.12.14.12.2.2.14.22.12.26.12.29-1.11.27-.05-.2-.1-.16-.12-.17-.14-.13-.17-.09-.17-.07-.2-.05-.22-.02-.14.02h-.15l-.14.05-.12.04-.13.05-.12.07-.1.08-.1.12-.11.15-.1.14-.07.17-.07.2-.05.17-.05.19-.02.2v.39l.02.19.05.17.05.19.07.17.07.15.1.16.12.13.1.1.1.09.11.08.13.04.12.05.12.05.14.02h.14l.23-.02.2-.05.19-.07.17-.13.14-.16.12-.2.1-.22ZM35.8 38.08v-4.39h-1.5v-.9h4.08v.9h-1.53v4.39Z"/></svg>