<svg xmlns="http://www.w3.org/2000/svg" id="svg4554" viewBox="-.6 -.6 158.7 21.17"><path fill="#6c6e71" d="M123.12 0a10.6 10.6 0 0 0-9.76 6.12 33 33 0 0 0-2.87 8.04 5.07 5.07 0 0 0 4.77 5.8h3.43a10.6 10.6 0 0 0 9.76-6.12 33 33 0 0 0 2.87-8.05 5.06 5.06 0 0 0-4.77-5.8l-1.98.02ZM58.58.2l1.54 19.57h3.09-.02.18a1.9 1.9 0 0 0 1.49-.83L77.45.2h-3.26l-9.01 13.46L64.12.2ZM79.7.2l-7.22 19.57h5.55L85.23.2Zm13 0c-4.97.05-7.17 5.6-4.45 9.14 1.38 1.69 3.35 3.43 4.46 5.28.7 1-.05 2.66-1.4 2.68h-8.78l-.91 2.47h11.13a5.65 5.65 0 0 0 4.39-9.09c-1.36-2-3.5-3.35-4.77-5.3-.75-1.02 0-2.7 1.37-2.7h8.18l.91-2.49Zm13.97 0-7.22 19.57h5.54L112.2.2Zm29.91 0-7.25 19.57h2.86l5-13.5.02.25 4.49 12.12c.27.64.89 1.1 1.61 1.13h2.61L153.16.2h-2.85l-4.9 13.24L140.19.19h-3.62m-12.19 1.83c1.05.08 1.88.96 1.88 2.03q0 .4-.14.76l-3.66 9.97a4.9 4.9 0 0 1-4.5 3.15h-.54a2.04 2.04 0 0 1-1.88-2.03q0-.4.15-.76l3.66-9.97a4.9 4.9 0 0 1 4.5-3.14Z"/><path fill="#d71820" d="M7.22.2 0 19.76h5.88l3.46-9.36h7l-3.45 9.36h4.6c.78 0 1.44-.49 1.72-1.17v-.02L26 .2h-5.88l-2.78 7.54h-7L13.1.2Zm22.51 0-7.21 19.57h5.88L35.62.2h-5.89m9.9 0L32.4 19.76h5.89l2.76-7.5 1.47-1.13 3.9 7.56.02.01c.32.66 1.02 1.1 1.8 1.05h-.05 5L46.97 7.72l9.8-7.53h-4.4L42.8 7.55 45.5.2Z"/><path fill="#6c6e71" d="M157.5 1.92c0 1.1-.85 1.95-1.97 1.95-1.1 0-1.98-.86-1.98-1.95 0-1.06.88-1.92 1.98-1.92 1.12 0 1.97.86 1.97 1.92m-3.46 0c0 .86.64 1.54 1.5 1.54.85 0 1.47-.68 1.47-1.53S156.39.4 155.53.4c-.85 0-1.49.69-1.49 1.53m1.19 1.01h-.45V1.01q.26-.06.74-.06c.36 0 .53.06.67.14.1.08.19.24.19.42 0 .21-.17.38-.4.45v.02q.27.1.35.47c.06.3.1.41.14.48h-.48q-.08-.12-.15-.47-.05-.3-.4-.3h-.21Zm0-1.09h.22c.25 0 .45-.08.45-.28q0-.28-.42-.3-.17 0-.24.03Z"/></svg>