<svg xmlns="http://www.w3.org/2000/svg" id="svg2" viewBox="0 0 200 29.8"><g fill="#6b0e89"><path d="M.5 28.5V1.3h7.4L20.3 18V1.3h7.3v27.2h-7.3L7.9 11.7v16.8ZM36.3 28.5V1.3h18v6H43.8V12H54v5.9H43.7v4.7h10.7v6ZM74.1 28.5h-7.5V7.3h-7.2v-6h21.9v6h-7.2ZM99.2 13.3h14.6c0 10.4-5.5 16-14.4 16-8.6 0-15-5.3-15-14C84.4 6 90.2.4 99.2.4c10.2 0 13 7.6 13 7.6l-7 2.8s-1.6-4.3-6.2-4.3c-3.4 0-7 2.5-7 8.5 0 5 3.2 8.4 7.4 8.4 3.6 0 5.5-2.1 5.7-4.7h-5.9ZM152.6 1.3l-10 27.2h7.7l1.7-5h9.8l1.7 5h7.7l-10-27.2Zm4.3 7 3.2 9.8h-6.4ZM175.7 1.3v27.2h7.3V18h.6l6.8 10.5h9.1l-8.6-11.2c3-.5 6.2-2.7 6.2-7.6 0-4.7-3-8.4-10.3-8.4Zm7.3 5.5h2c3.8 0 4.7 1.4 4.7 3.4q0 3.4-4.7 3.3h-2ZM120.2 28.5V1.3h18v6h-10.6V12H138v5.9h-10.3v4.7h10.7v6Z"/></g></svg>