<svg xmlns="http://www.w3.org/2000/svg" viewBox="19 240 600 163"><style>.st0{fill-rule:evenodd;clip-rule:evenodd}</style><path d="M416.4 338.4v.2c0 1.9-1.6 3.4-3.5 3.4h-19.1a3.5 3.5 0 0 1-3.5-3.4v-.2a116 116 0 0 1 8.4-24.9q4.8-8.7 9.2 0c3.8 8.6 6.5 16.2 8.5 24.9m1.2-43.4a52 52 0 0 1 37.2 49.2v8.1a7 7 0 0 1-7 6.9h-52.2a3.5 3.5 0 0 0-3.5 3.4c0 2.8 2.5 8.1 3.5 10.9a21 21 0 0 0 19.3 12.7c7.9 0 16.4-1.4 24.3-2h.5c3.1 0 5.6 2.4 5.6 5.4 0 2.4-1.6 4.5-3.9 5.2-25.8 8-42.9 10.7-69.9 1a52 52 0 0 1-29.8-46.4v-4.5c0-19.7 12-38.1 30-46.3 13.8-7.6 31-7.6 45.9-3.6" class="st0"/><path d="M325.7 281.7v-12c0-4.7-3.6-10.9-13.1-7.5a119 119 0 0 1-62.1 24.6 8 8 0 0 0-7.1 7.7c0 4.3 3.5 7.7 7.8 7.7h3.2c4.8 0 8.7 3.8 8.7 8.5V398h62.6v-83.5c0-3 1.6-5.8 4.2-7.3 4.8-2.8 11.9-5.5 11.9-11.9 0-4.7-3.9-8.5-8.7-8.5-3.5.1-7.4-.5-7.4-5.1" class="st0"/><path d="m178.6 310.9-25-3.9a5.8 5.8 0 0 1 1-11.6h55.2a31 31 0 0 1 31.3 30.8v71.9h-52.2V393l-17.4 5.1h-12.2c-17.3 0-31.3-10.8-31.3-34.6s14.1-33.9 31.3-33.9h29.6v-6.9c0-5.8-4.5-10.9-10.3-11.8m10.2 68.4c-7.6-2.2-21.7-10.7-21.7-17.1s14-14.9 21.7-17.1ZM84.6 398.1a31 31 0 0 0 31.4-30.8q-.1-6.3-2.6-12.2L85 290.2q-.7-1.6-.7-3.4c0-4.7 3.9-8.6 8.7-8.6h14.3c4.8 0 8.7-3.8 8.7-8.5s-3.9-8.5-8.7-8.5H51.7A31 31 0 0 0 20.4 292q.1 6.3 2.6 12.2l28.5 64.9q.7 1.6.7 3.4c0 4.7-3.9 8.6-8.7 8.6L29 381a8.7 8.7 0 0 0-8.7 8.6c0 4.7 3.9 8.6 8.7 8.6ZM472.8 283.7a9 9 0 0 0-6.4 8.2v106.2H529V269.7c0-4.7-3.9-8.5-8.7-8.5-4 0-7.5.7-12.4 5.5-7.2 6.2-16.4 11.3-35.1 17M581.9 276.5v-34.8l-30.8 17.4ZM587 276.5l30.7-17.4-30.7-17.4ZM589.6 280.9l30.7 17.4v-34.8ZM587 285.2V320l30.7-17.4ZM581.9 285.2l-30.8 17.4 30.8 17.4ZM579.3 280.9l-30.7-17.4v34.8ZM564.2 366.8q4 0 7.7 2a15.8 15.8 0 0 1 5.8 21.4 15.8 15.8 0 0 1-21.4 5.8 15.8 15.8 0 0 1-5.8-21.4q2-3.7 5.8-5.8 4-2 7.9-2m0 3.1a13 13 0 0 0-10.9 6.2 13 13 0 0 0-1.7 6.3q0 3.3 1.7 6.3a12.9 12.9 0 0 0 10.8 6.3q3.3 0 6.2-1.7a12 12 0 0 0 4.6-4.6 13 13 0 0 0 1.7-6.3 13 13 0 0 0-1.7-6.3 11 11 0 0 0-4.7-4.6 11 11 0 0 0-6-1.6m-7.1 20.9v-16.6h8.7q1.7.1 2.6.7t1.5 1.6.6 2.4q0 1.8-1.2 3.1t-3.3 1.6l1.2.6q.5.3 1.1 1.3l1.2 2 2 3.3h-4.2l-1.4-2.7q-1.4-2.7-2.3-3.4-1-.7-2.3-.7h-.9v6.8Zm3.4-9.4h1.4q2.9 0 3.6-.2t1.1-.8.4-1.3-.4-1.2-1.1-.8-3.6-.2h-1.4Z" class="st0"/></svg>