<svg xmlns="http://www.w3.org/2000/svg" viewBox="0 0 550 159"><g fill="#41d228"><path d="M0 0h91.3v22.3c-10.1.2-20.3-.1-30.4.1v98.7q-15.3.2-30.6-.1.1-49.4 0-98.6H0ZM113.4 1.6a16.3 16.3 0 1 1 9.4 31.2 16.3 16.3 0 0 1-9.4-31.2M411.4.9h30.5c-.2 40 .4 80 .2 120h-30.7q0-6 .3-12c-2.7 3.5-5.1 7.3-8.9 9.8a33 33 0 0 1-21.8 4.4 35 35 0 0 1-25.6-15.6A58 58 0 0 1 348 69c1.5-10.8 6-21.6 14.4-28.6a36 36 0 0 1 37.5-5.3c5.3 2.3 8.7 7.2 11.7 11.9q-.3-23.1-.2-46.1m-20 55.8c-6.3 2-10.8 8-11.9 14.5-1.6 8.3-.5 18.2 6 24.2 4 3.8 10 5 15.3 4 3.9-.5 8.5-1.7 10.4-5.5q.3-15.4.3-31c.1-2.8-3-4.3-5-5.3-4.8-1.8-10.2-2.6-15-1"/><path d="M292.4 35.3a39 39 0 0 1 27.2-1.7 24 24 0 0 1 13.8 11 45 45 0 0 1 4.8 22.4v54q-15.3.2-30.6 0c-.2-15.6 0-31.2-.2-46.9-.3-5.7-1.5-12.5-7-15.4-7.7-3.6-17.3 0-22 6.6-.3 18.6 0 37.2-.1 55.8h-30.5V34.8h30.5v11.6c4.2-4.2 8.5-8.6 14-11M148 59a44.3 44.3 0 0 1 60.2-19.3v-5q11.8 0 23.6 0v88.5q-11.8.3-23.6 0v-4.9A44.3 44.3 0 0 1 148 59m34.5-.2A21 21 0 0 0 167 83.9a21 21 0 0 0 23 16c11.8-1.2 21-14 17.8-25.6a21 21 0 0 0-25.4-15.6M450 34.7h32c6.2 19.6 11.7 39.3 18 59 6-19.7 11.7-39.4 18-59h32v.9c-13.2 32.8-25.6 66-38.5 99a39 39 0 0 1-14 19 37 37 0 0 1-18.2 5.4l-12.9.1v-27.2c4-.4 8.2 0 12.1-1.3 3.5-1.2 6.6-5.1 5-8.9Z"/><path d="M103 39A30 30 0 0 0 133.7 39v82q-15.1.4-30.4 0Z"/></g></svg>