<svg xmlns="http://www.w3.org/2000/svg" id="svg2658" viewBox="-1.74 -1.74 473.05 61.45"><path fill="#1c67b8" d="M377.85 57.98V0h23.55v25.73c1.05-.98 2.55-2.03 4.2-3.3L434.25.15h16.65L418.27 26.4l37.2 31.58h-25.8L402.76 35.7c-.52-.37-.98-.67-1.35-1.05v23.33ZM23.77 8.4H0V0h71.18v8.4H47.7v49.58H23.77Zm79.13 49.58H79.42V0h55.96c13.05 0 16.94 8.93 16.94 15.83v12.82c0 6.68-5.84 13.43-17.17 13.43H102.9Zm0-24.3h19.27s6.45-.15 6.45-5.55V14.25s0-5.7-6.45-5.7L102.9 8.4Zm57.22-.68v-8.4h24.23V33Zm46.28 24.98c-10.65 0-15.68-6.98-15.68-15.75V0h23.56v44.1c0 3.75 3.22 5.55 6.6 5.55h36.14v8.33Zm79.2 0h-23.55V0h23.55Zm18.38 0h-9.75V0C294.23.15 309.67 0 309.67 0c3.9 0 8.48 1.95 10.95 4.35l38.25 38.55V0h9.9v57.98h-18.3c-4.27 0-6.97-1.88-9.82-4.58l-36.67-36.22M466.05 11.25h-1.2l-.68-2.18c-.15-.37-.44-.67-.67-.97a3 3 0 0 0-1.27-.38h-2.03v3.52h-1.05V3h3.68c.67 0 1.2 0 1.57.15.45.15.68.38.98.83.3.37.37.74.37 1.35 0 .52-.07 1.05-.52 1.42-.23.3-.68.6-1.36.67.68.3 1.13.68 1.36 1.5Zm-5.85-4.5h2.48c.67 0 1.2-.08 1.5-.38q.54-.24.52-1.05c0-.97-.68-1.5-1.8-1.5h-2.7"/><path fill="#1c67b8" d="M462.15 0a7.43 7.43 0 0 0-7.35 7.43c0 4.12 3.3 7.5 7.35 7.5 4.2 0 7.43-3.38 7.43-7.5A7.4 7.4 0 0 0 462.15 0m0 13.65A6.24 6.24 0 0 1 456 7.42a6.1 6.1 0 0 1 6.15-6.07c3.38 0 6.23 2.7 6.23 6.07a6.3 6.3 0 0 1-6.23 6.23"/></svg>